<svg xmlns="http://www.w3.org/2000/svg" viewBox="0 0 40 40" width="40" height="40">
  <g transform="translate(1,1) scale(1.95)">
    <path fill-rule="evenodd" clip-rule="evenodd" d="M6.81969 11.9081C7.34472 11.9081 8.3891 11.8785 9.8327 11.2692C11.5149 10.559 14.8619 9.2699 17.2762 7.94576C18.9648 7.01963 19.7049 5.79474 19.7049 4.14523C19.705 1.85589 17.8949 0 15.6621 0H6.30704C3.09989 0 0.5 2.66571 0.5 5.95406C0.5 9.2424 2.93427 11.9081 6.81969 11.9081Z" fill="#355146"/>
    <path fill-rule="evenodd" clip-rule="evenodd" d="M8.40234 16.0108C8.40234 14.3989 9.34877 12.9456 10.8008 12.3277L13.7469 11.0741C16.7269 9.80599 20.0069 12.0514 20.0069 15.3595C20.0069 17.9226 17.9801 20.0001 15.4803 19.9994L12.2906 19.9985C10.143 19.998 8.40234 18.2128 8.40234 16.0108Z" fill="#D18EE2"/>
    <path d="M3.8476 12.6914H3.84753C1.99874 12.6914 0.5 14.2281 0.5 16.1237V16.5683C0.5 18.4639 1.99874 20.0005 3.84753 20.0005H3.8476C5.69639 20.0005 7.19513 18.4639 7.19513 16.5683V16.1237C7.19513 14.2281 5.69639 12.6914 3.8476 12.6914Z" fill="#FF7759"/>
  </g>
</svg>
