<svg xmlns="http://www.w3.org/2000/svg" viewBox="0 0 256 256" fill="#76b900">
  <path d="M103.7 68.5C103.7 68.5 60.9 75.3 37.9 112.5c0 0-26.9 43.5 1.6 93.4 0 0 11.6 18.3 27.2 31.6 0 0-34.3-52.5-10.2-94.3 0 0 18.4-34.8 47.2-41.7v-9.3h0.0v-23.7z"/>
  <path d="M113.8 61.5v11.2c47.3-6.3 83.5 32.3 83.5 32.3-35.9-38.4-83.5-32.3-83.5-32.3v-11.2z"/>
  <path d="M113.8 83.3v10.1c63.3-6.5 99.7 45.3 99.7 45.3-22.7-38.2-63.1-51.8-99.7-45.3v-10.1z"/>
  <path d="M113.8 103.3v9.4c82.3-2.1 107.9 60.4 107.9 60.4-13.4-40.9-58.6-63.1-107.9-60.4v-9.4z"/>
  <path d="M103.7 92.2v113.6c0 0 2.3 0.3 5.8 0.3 45.5 0 89.2-30.2 89.2-30.2-41.7 21.3-89.2 19.5-89.2 19.5V92.2h-5.8z"/>
  <path d="M103.7 92.2c-27.5 5.7-43.3 28.2-43.3 28.2-24.1 36.8 5.3 79.1 5.3 79.1 -18.2-24.3-13.8-58.1-13.8-58.1 6.5-28.7 51.8-36.4 51.8-36.4v-12.8z"/>
</svg>
