<svg xmlns="http://www.w3.org/2000/svg" viewBox="0 0 40 40" width="40" height="40">
  <path d="M34.18 17.21a8.59 8.59 0 0 0-.74-7.09 8.72 8.72 0 0 0-9.38-4.17A8.59 8.59 0 0 0 17.62 2a8.72 8.72 0 0 0-8.31 6.04 8.59 8.59 0 0 0-5.75 4.17 8.72 8.72 0 0 0 1.07 10.21 8.59 8.59 0 0 0 .74 7.09 8.72 8.72 0 0 0 9.38 4.17A8.59 8.59 0 0 0 21.19 38a8.72 8.72 0 0 0 8.31-6.04 8.59 8.59 0 0 0 5.75-4.17 8.72 8.72 0 0 0-1.07-10.21zM21.19 35.95a6.45 6.45 0 0 1-4.14-1.5l.2-.12 6.88-3.97a1.12 1.12 0 0 0 .57-.98v-9.7l2.91 1.68a.1.1 0 0 1 .06.08v8.04a6.48 6.48 0 0 1-6.48 6.47zM7.69 29.85a6.44 6.44 0 0 1-.77-4.33l.2.12 6.88 3.97a1.13 1.13 0 0 0 1.13 0l8.4-4.85v3.36a.11.11 0 0 1-.04.09l-6.96 4.02a6.48 6.48 0 0 1-8.84-2.38zM5.99 14.26a6.44 6.44 0 0 1 3.37-2.83v8.18a1.12 1.12 0 0 0 .56.97l8.4 4.85-2.91 1.68a.1.1 0 0 1-.1 0l-6.96-4.02a6.48 6.48 0 0 1-2.36-8.83zm22.45 5.22-8.4-4.85 2.91-1.68a.1.1 0 0 1 .1 0l6.96 4.02a6.47 6.47 0 0 1-1 11.67v-8.18a1.12 1.12 0 0 0-.57-.98zm2.89-4.35-.2-.12-6.88-3.97a1.13 1.13 0 0 0-1.13 0l-8.4 4.85v-3.36a.11.11 0 0 1 .04-.09l6.96-4.02a6.47 6.47 0 0 1 9.61 6.71zm-18.2 5.98-2.91-1.68a.1.1 0 0 1-.06-.08v-8.04a6.47 6.47 0 0 1 10.62-4.97l-.2.12-6.88 3.97a1.12 1.12 0 0 0-.57.98zm1.58-3.42 3.74-2.16 3.74 2.16v4.32l-3.74 2.16-3.74-2.16z" fill="currentColor"/>
</svg>
