<svg xmlns="http://www.w3.org/2000/svg" viewBox="0 0 40 40" width="40" height="40">
  <g stroke="#29B5E8" stroke-width="2.5" stroke-linecap="round">
    <line x1="20" y1="4" x2="20" y2="36"/>
    <line x1="6" y1="12" x2="34" y2="28"/>
    <line x1="6" y1="28" x2="34" y2="12"/>
    <line x1="16" y1="6" x2="20" y2="10"/>
    <line x1="24" y1="6" x2="20" y2="10"/>
    <line x1="16" y1="34" x2="20" y2="30"/>
    <line x1="24" y1="34" x2="20" y2="30"/>
    <line x1="8" y1="9" x2="10" y2="14"/>
    <line x1="4" y1="15" x2="10" y2="14"/>
    <line x1="32" y1="31" x2="30" y2="26"/>
    <line x1="36" y1="25" x2="30" y2="26"/>
    <line x1="8" y1="31" x2="10" y2="26"/>
    <line x1="4" y1="25" x2="10" y2="26"/>
    <line x1="32" y1="9" x2="30" y2="14"/>
    <line x1="36" y1="15" x2="30" y2="14"/>
  </g>
</svg>
